<svg width="18" height="18" viewBox="0 0 18 18" fill="none" xmlns="http://www.w3.org/2000/svg">
<g clip-path="url(#clip0_15241_74796)">
<path d="M8.02997 4.30073L8.03036 6.71322C6.52095 6.96647 4.82468 7.41358 4.47277 7.62019C4.0892 7.84565 3.86199 8.3075 3.86195 8.9997C3.86139 9.69361 4.09095 10.1508 4.47297 10.3805C4.87672 10.6235 6.52073 11.0347 8.03056 11.2867L8.03021 13.6992C8.03019 14.2521 8.64876 14.5799 9.10631 14.2735C11.8537 12.4289 14.3128 9.55103 14.4087 9.43026C14.6044 9.18284 14.6126 8.82797 14.4085 8.57007C14.3126 8.44929 11.854 5.57123 9.10651 3.72642C8.64431 3.41953 8.02997 3.75048 8.02997 4.30073Z" fill="#646374"/>
</g>
<defs>
<clipPath id="clip0_15241_74796">
<rect width="18" height="18" fill="white"/>
</clipPath>
</defs>
</svg>
