<svg width="18" height="18" viewBox="0 0 18 18" fill="none" xmlns="http://www.w3.org/2000/svg">
<path d="M8.4623 11.5375L12.6998 7.29996L11.6498 6.21246L8.4623 9.39996L6.8498 7.82496L5.7998 8.87496L8.4623 11.5375Z" fill="white"/>
<path d="M6.7 16.7499L5.275 14.3499L2.575 13.7499L2.8375 10.9749L1 8.87494L2.8375 6.77494L2.575 3.99994L5.275 3.39994L6.7 0.999939L9.25 2.08744L11.8 0.999939L13.225 3.39994L15.925 3.99994L15.6625 6.77494L17.5 8.87494L15.6625 10.9749L15.925 13.7499L13.225 14.3499L11.8 16.7499L9.25 15.6624L6.7 16.7499ZM8.4625 11.5374L12.7 7.29994L11.65 6.21244L8.4625 9.39994L6.85 7.82494L5.8 8.87494L8.4625 11.5374Z" fill="#1475E1"/>
</svg>
