<svg width="18" height="18" viewBox="0 0 18 18" fill="none" xmlns="http://www.w3.org/2000/svg">
<g clip-path="url(#clip0_15241_75424)">
<path d="M10.5516 3.25507C11.1823 3.25507 11.7129 3.43026 12.1434 3.78064C12.5838 4.13103 12.8041 4.60155 12.8041 5.1922C12.8041 5.27229 12.694 6.01811 12.4737 7.42966C12.3736 8.08038 12.1133 8.57092 11.6929 8.90128C11.2724 9.22163 10.7418 9.38181 10.1011 9.38181C9.47042 9.38181 8.93483 9.20662 8.49434 8.85623C8.06387 8.50585 7.84863 8.03533 7.84863 7.44468C7.84863 7.32455 7.95375 6.57873 8.16398 5.20722C8.26409 4.5565 8.52438 4.07096 8.94484 3.75061C9.37531 3.42025 9.9109 3.25507 10.5516 3.25507ZM16.4531 3.36018H17.7145L9.39534 14.6226H8.11893L16.4531 3.36018ZM10.1462 7.76003C10.4865 7.76003 10.6868 7.56982 10.7468 7.1894C10.937 6.13824 11.0321 5.53758 11.0321 5.38741C11.0321 5.04704 10.8519 4.87685 10.4915 4.87685C10.1512 4.87685 9.95595 5.06205 9.9059 5.43246C9.70568 6.38351 9.60557 6.98417 9.60557 7.23445C9.60557 7.58483 9.78577 7.76003 10.1462 7.76003ZM15.7473 8.66102C16.378 8.66102 16.9086 8.83621 17.3391 9.1866C17.7796 9.53698 17.9998 10.0075 17.9998 10.5981C17.9998 10.6782 17.8897 11.4241 17.6694 12.8356C17.5693 13.4863 17.309 13.9769 16.8886 14.3072C16.4681 14.6276 15.9375 14.7878 15.2968 14.7878C14.6661 14.7878 14.1305 14.6126 13.6901 14.2622C13.2596 13.9118 13.0444 13.4413 13.0444 12.8506C13.0444 12.6905 13.1545 11.9446 13.3747 10.6132C13.4648 9.96245 13.7201 9.47692 14.1406 9.15656C14.571 8.8262 15.1066 8.66102 15.7473 8.66102ZM15.3419 13.166C15.6823 13.166 15.8825 12.9758 15.9425 12.5953C16.1328 11.5542 16.2279 10.9535 16.2279 10.7934C16.2279 10.453 16.0477 10.2828 15.6873 10.2828C15.3469 10.2828 15.1517 10.468 15.1016 10.8384C14.9014 11.7895 14.8013 12.3901 14.8013 12.6404C14.8013 12.9908 14.9815 13.166 15.3419 13.166Z" fill="#B1BAD3"/>
<path d="M4.30974 3.21002C5.29082 3.21002 6.04165 3.4603 6.56222 3.96085C7.0828 4.45139 7.34308 5.12213 7.34308 5.97306C7.34308 6.05315 7.33808 6.12824 7.32807 6.19831C7.32807 6.26839 7.32306 6.34347 7.31305 6.42356C7.31305 6.50365 7.29803 6.61878 7.268 6.76894C7.24798 6.9091 7.22796 7.05926 7.20794 7.21944C7.18791 7.3696 7.15287 7.59485 7.10282 7.89518C7.05276 8.19551 7.00271 8.50085 6.95265 8.81119C6.9026 9.12153 6.83252 9.547 6.74242 10.0876C6.66233 10.6182 6.57724 11.1588 6.48714 11.7094C6.33698 12.6804 5.95656 13.4363 5.34588 13.9769C4.74522 14.5075 3.9944 14.7728 3.09341 14.7728C2.12234 14.7728 1.3615 14.5225 0.810893 14.0219C0.270298 13.5214 0 12.8506 0 12.0097C0 11.9196 0 11.8395 0 11.7694C0.010011 11.6894 0.020022 11.5842 0.0300331 11.4541C0.0500551 11.3139 0.0700772 11.1738 0.0900992 11.0336C0.120132 10.8835 0.160176 10.6582 0.210231 10.3579C0.260287 10.0576 0.310342 9.74722 0.360397 9.42687C0.410452 9.0965 0.480529 8.64601 0.570628 8.07538C0.670738 7.49474 0.770849 6.89408 0.870959 6.27339C1.02112 5.31234 1.40655 4.56151 2.02723 4.02092C2.64791 3.48032 3.40875 3.21002 4.30974 3.21002ZM4.1746 5.31234C3.57393 5.31234 3.21854 5.66272 3.10842 6.36349C2.5478 9.85734 2.2675 11.6844 2.2675 11.8445C2.2675 12.1048 2.34758 12.31 2.50776 12.4602C2.67795 12.6004 2.9032 12.6704 3.1835 12.6704C3.79418 12.6704 4.14456 12.3201 4.23466 11.6193C4.79528 8.12543 5.07559 6.29842 5.07559 6.13825C5.07559 5.87796 4.9955 5.67774 4.83532 5.53759C4.67515 5.38742 4.4549 5.31234 4.1746 5.31234Z" fill="#B1BAD3"/>
</g>
<defs>
<clipPath id="clip0_15241_75424">
<rect width="18" height="18" fill="white"/>
</clipPath>
</defs>
</svg>
