<svg width="140" height="80" viewBox="0 0 140 80" fill="none" xmlns="http://www.w3.org/2000/svg">
<g clip-path="url(#clip0_9505_4941)">
<path d="M23.8619 39.7566C24.7473 39.9775 27.585 40.4151 27.1637 42.1059C26.7601 43.7275 24.0303 42.8511 23.1449 42.6312L23.8619 39.7566Z" fill="#5F677C"/>
<path d="M24.8397 35.8337C25.5769 36.0174 27.951 36.3603 27.5676 37.899C27.1992 39.3739 24.9267 38.6247 24.1895 38.441L24.8397 35.8337Z" fill="#5F677C"/>
<path fill-rule="evenodd" clip-rule="evenodd" d="M13.3551 36.7396C14.9442 30.3628 21.4025 26.4818 27.7775 28.0715C34.1541 29.6612 38.0339 36.1209 36.4442 42.4975C34.8543 48.8735 28.3964 52.7535 22.0196 51.1634C15.6454 49.5736 11.7647 43.1153 13.3551 36.7396ZM23.8757 34.0074C23.5916 33.9427 23.3124 33.8793 23.0417 33.812L23.0432 33.8047L21.2423 33.355L20.895 34.7498C20.895 34.7498 21.8604 34.9714 21.8438 34.9859C22.3723 35.118 22.4678 35.4677 22.4518 35.7451L21.8431 38.1896C21.8795 38.1989 21.927 38.2124 21.9789 38.2332C21.9355 38.2224 21.8888 38.2098 21.8409 38.1983L20.9866 41.6221C20.9219 41.7828 20.7577 42.0238 20.388 41.9323C20.4009 41.9511 19.4556 41.6999 19.4392 41.6955L18.7905 43.1905L20.4904 43.6141C20.8064 43.6933 21.1161 43.7764 21.421 43.8545L20.8805 46.0245L22.1852 46.3499L22.7199 44.2032C23.0762 44.2999 23.4225 44.3887 23.7609 44.4727L23.2277 46.61L24.5332 46.9354L25.0736 44.7691C27.3004 45.1905 28.9753 45.0208 29.6801 43.0067C30.248 41.3851 29.6516 40.4494 28.48 39.8394C29.3332 39.6426 29.9758 39.0816 30.1472 37.9223C30.3841 36.3385 29.1786 35.487 27.5298 34.9191L28.0645 32.7738L26.759 32.4484L26.2381 34.537C25.8949 34.4514 25.5423 34.3706 25.192 34.2907L25.7166 32.1883L24.4111 31.8629L23.8757 34.0074Z" fill="#5F677C"/>
<path d="M47.8779 34.917C48.8431 34.917 49.677 35.09 50.3777 35.4296C51.0818 35.7725 51.6628 36.2345 52.1288 36.8154C52.5885 37.3994 52.9307 38.0819 53.1516 38.8641C53.3711 39.6485 53.4812 40.4917 53.4812 41.3944C53.4812 42.781 53.2271 44.091 52.7142 45.3258C52.2013 46.5625 51.5054 47.6352 50.6202 48.5502C49.7357 49.464 48.6913 50.1845 47.487 50.7167C46.2845 51.2494 44.9771 51.5157 43.5734 51.5157C43.3919 51.5157 43.0728 51.5105 42.622 51.5012C42.1712 51.4919 41.6531 51.4454 41.0729 51.3669C40.4889 51.2854 39.8715 51.1649 39.2195 51.0035C38.5678 50.8451 37.9489 50.623 37.3661 50.3411L42.5777 28.4427L47.2456 27.7192L45.3796 35.4902C45.779 35.3102 46.1815 35.1707 46.5832 35.0692C46.9852 34.9691 47.4167 34.917 47.8779 34.917ZM43.9625 47.8126C44.6654 47.8126 45.3279 47.6397 45.9501 47.3001C46.5742 46.9601 47.1128 46.5012 47.564 45.9295C48.0151 45.3552 48.3722 44.7084 48.6326 43.9857C48.8929 43.263 49.0246 42.5091 49.0246 41.7247C49.0246 40.761 48.8635 40.0093 48.5425 39.4659C48.2216 38.9247 47.6276 38.6524 46.765 38.6524C46.4824 38.6524 46.1182 38.7064 45.6667 38.8027C45.2137 38.905 44.8083 39.1174 44.4449 39.4369L42.458 47.6895C42.5777 47.7107 42.6837 47.7308 42.7741 47.7498C42.8626 47.7702 42.9605 47.7847 43.0579 47.7948C43.1609 47.8063 43.2788 47.8123 43.4213 47.8123C43.5637 47.8123 43.7419 47.8126 43.9625 47.8126Z" fill="#5F677C"/>
<path d="M58.322 51.0966H53.8635L57.6287 35.253H62.1177L58.322 51.0966ZM60.4915 33.3226C59.8693 33.3226 59.305 33.1374 58.8044 32.7662C58.2997 32.3972 58.0497 31.8293 58.0497 31.0638C58.0497 30.6428 58.1353 30.2478 58.3049 29.8751C58.4771 29.5032 58.7021 29.1829 58.984 28.9107C59.2656 28.6406 59.5918 28.4249 59.9622 28.2624C60.3349 28.1024 60.7314 28.0225 61.154 28.0225C61.7758 28.0225 62.3371 28.2077 62.8396 28.5789C63.3402 28.9519 63.592 29.5199 63.592 30.2813C63.592 30.7038 63.5069 31.1003 63.3358 31.4722C63.1658 31.8442 62.9408 32.1644 62.6588 32.4367C62.3795 32.7071 62.0503 32.922 61.6806 33.0831C61.3076 33.2456 60.9126 33.3226 60.4915 33.3226Z" fill="#5F677C"/>
<path d="M66.0248 31.3055L70.6946 30.582L69.5479 35.2521H74.549L73.6459 38.9262H68.6749L67.3508 44.4681C67.2288 44.93 67.1596 45.3615 67.1403 45.7624C67.1183 46.1653 67.1693 46.5112 67.2898 46.8024C67.4096 47.0944 67.6249 47.3194 67.9374 47.4786C68.2483 47.6404 68.6935 47.7218 69.2775 47.7218C69.7584 47.7218 70.227 47.6761 70.68 47.5853C71.1305 47.4961 71.5868 47.3718 72.0488 47.2093L72.3813 50.6445C71.7788 50.8655 71.1264 51.0555 70.4234 51.2155C69.7193 51.3776 68.8858 51.4557 67.9225 51.4557C66.5374 51.4557 65.4636 51.2501 64.6985 50.8406C63.9345 50.4281 63.3945 49.8646 63.0712 49.1512C62.7525 48.4404 62.61 47.621 62.6498 46.6979C62.6911 45.7725 62.8306 44.7999 63.0712 43.7755L66.0248 31.3055Z" fill="#5F677C"/>
<path d="M74.3528 44.77C74.3528 43.4053 74.5737 42.1184 75.0152 40.9137C75.456 39.7079 76.0909 38.6534 76.9147 37.7485C77.7356 36.848 78.7357 36.1346 79.9129 35.6109C81.0845 35.0902 82.3964 34.8276 83.8421 34.8276C84.7471 34.8276 85.5553 34.9132 86.2664 35.0847C86.9806 35.2576 87.6266 35.4811 88.2109 35.7616L86.6733 39.2578C86.2716 39.0949 85.8547 38.9513 85.4236 38.8212C84.9922 38.6884 84.4655 38.6244 83.8425 38.6244C82.3544 38.6244 81.1779 39.1373 80.3024 40.1598C79.4302 41.183 78.9909 42.5603 78.9909 44.288C78.9909 45.3119 79.2118 46.1399 79.6552 46.7733C80.0963 47.4067 80.9112 47.7217 82.0944 47.7217C82.6783 47.7217 83.2418 47.6607 83.7815 47.5417C84.3253 47.4212 84.8054 47.2694 85.2283 47.0902L85.5612 50.6742C84.9974 50.8929 84.3755 51.0904 83.6933 51.2633C83.0097 51.4304 82.1959 51.517 81.2523 51.517C80.0067 51.517 78.9522 51.3348 78.0897 50.9758C77.2268 50.6113 76.5138 50.1274 75.9521 49.5145C75.3875 48.9 74.9821 48.1826 74.7314 47.3591C74.4807 46.5364 74.3528 45.672 74.3528 44.77Z" fill="#5F677C"/>
<path d="M94.1585 51.517C93.0944 51.517 92.1701 51.3548 91.386 51.0339C90.6042 50.7129 89.9567 50.2625 89.4445 49.6785C88.9316 49.0975 88.5478 48.4091 88.2848 47.6157C88.0218 46.8227 87.8954 45.9446 87.8954 44.9824C87.8954 43.7754 88.0892 42.5689 88.4808 41.3656C88.8706 40.1598 89.449 39.0763 90.2144 38.1134C90.9739 37.1489 91.9109 36.3604 93.014 35.7456C94.1161 35.1349 95.3837 34.8276 96.8075 34.8276C97.8523 34.8276 98.7717 34.9902 99.5665 35.3112C100.358 35.6314 101.009 36.0855 101.524 36.6665C102.034 37.2505 102.421 37.936 102.682 38.7304C102.944 39.5219 103.073 40.4023 103.073 41.3652C103.073 42.5685 102.882 43.7751 102.503 44.982C102.123 46.183 101.559 47.2691 100.816 48.2343C100.073 49.1972 99.1448 49.9854 98.0297 50.5976C96.9161 51.2098 95.6247 51.517 94.1585 51.517ZM96.3868 38.6248C95.7259 38.6248 95.1415 38.8167 94.6413 39.1957C94.1392 39.5792 93.7174 40.0612 93.3774 40.6426C93.0337 41.2265 92.779 41.8633 92.6068 42.5555C92.436 43.2491 92.3524 43.9049 92.3524 44.5279C92.3524 45.5332 92.5145 46.3162 92.8333 46.8797C93.1565 47.4402 93.7371 47.7221 94.581 47.7221C95.2442 47.7221 95.8255 47.5317 96.3288 47.1486C96.8279 46.7681 97.2501 46.2857 97.5926 45.7032C97.9341 45.1222 98.1911 44.4836 98.3633 43.7903C98.5318 43.0989 98.6177 42.4394 98.6177 41.8175C98.6177 40.8148 98.4563 40.03 98.1346 39.4672C97.8132 38.9067 97.23 38.6248 96.3868 38.6248Z" fill="#5F677C"/>
<path d="M107.932 51.0966H103.469L107.235 35.253H111.726L107.932 51.0966ZM110.098 33.3226C109.476 33.3226 108.912 33.1374 108.412 32.7662C107.91 32.3972 107.658 31.8293 107.658 31.0638C107.658 30.6428 107.744 30.2478 107.914 29.8751C108.084 29.5032 108.311 29.1829 108.593 28.9107C108.873 28.6406 109.202 28.4249 109.572 28.2624C109.942 28.1024 110.339 28.0225 110.76 28.0225C111.383 28.0225 111.946 28.2077 112.448 28.5789C112.949 28.9519 113.203 29.5199 113.203 30.2813C113.203 30.7038 113.113 31.1003 112.944 31.4722C112.776 31.8442 112.549 32.1644 112.268 32.4367C111.986 32.7071 111.661 32.922 111.29 33.0831C110.917 33.2456 110.521 33.3226 110.098 33.3226Z" fill="#5F677C"/>
<path d="M114.939 35.9739C115.277 35.8749 115.655 35.7559 116.066 35.6265C116.479 35.4971 116.94 35.3766 117.454 35.2679C117.964 35.156 118.538 35.0652 119.17 34.9949C119.802 34.9232 120.522 34.8882 121.322 34.8882C123.674 34.8882 125.295 35.5729 126.189 36.9383C127.084 38.3037 127.238 40.1724 126.658 42.5409L124.607 51.0955H120.119L122.107 42.7209C122.228 42.198 122.324 41.6925 122.394 41.1985C122.465 40.7091 122.461 40.2776 122.378 39.9042C122.299 39.5352 122.112 39.2332 121.822 38.9993C121.528 38.769 121.083 38.6534 120.481 38.6534C119.899 38.6534 119.308 38.7158 118.704 38.8363L115.782 51.0952H111.292L114.939 35.9739Z" fill="#5F677C"/>
</g>
<defs>
<clipPath id="clip0_9505_4941">
<rect width="114" height="23.8046" fill="white" transform="translate(13 27.7144)"/>
</clipPath>
</defs>
</svg>
