<svg width="141" height="80" viewBox="0 0 141 80" fill="none" xmlns="http://www.w3.org/2000/svg">
<g clip-path="url(#clip0_9505_4952)">
<path d="M43.3815 31.7679H44.4419C44.7117 31.7679 44.9313 31.9875 44.9313 32.2573V41.7506C44.9313 44.7498 46.5564 46.6447 49.5807 46.6447C52.605 46.6447 54.2301 44.7498 54.2301 41.7506V32.2573C54.2301 31.9875 54.4497 31.7679 54.7196 31.7679H55.7799C56.0497 31.7679 56.2694 31.9875 56.2694 32.2573V41.7757C56.2694 45.8604 54.0294 48.4643 49.5807 48.4643C45.1321 48.4643 42.8921 45.8353 42.8921 41.8008V32.2573C42.8858 31.9875 43.1054 31.7679 43.3815 31.7679ZM59.3941 44.6996C59.5509 44.4988 59.8521 44.48 60.0341 44.6557C61.1321 45.7224 62.776 46.6447 64.8592 46.6447C67.7831 46.6447 68.718 45.0698 68.718 43.8149C68.718 41.8447 66.729 41.3051 64.5643 40.7153C61.9352 40.0251 59.005 39.291 59.005 36.0659C59.005 33.3616 61.4145 31.5169 64.6396 31.5169C66.9548 31.5169 68.787 32.2259 70.136 33.4745C70.3305 33.6502 70.3494 33.9514 70.1799 34.1522L69.5399 34.9365C69.3831 35.131 69.0945 35.1435 68.9125 34.9741C67.7141 33.851 66.1329 33.3365 64.489 33.3365C62.5188 33.3365 61.1196 34.3969 61.1196 35.9404C61.1196 37.5906 63.0145 38.08 65.1039 38.6447C67.7831 39.36 70.8325 40.1945 70.8325 43.6392C70.8325 46.0235 69.2074 48.458 64.7839 48.458C62.136 48.458 60.1407 47.5231 58.7854 46.1679C58.6097 45.9922 58.5909 45.7098 58.7478 45.5153L59.3941 44.6996ZM73.2607 32.2573C73.2607 31.9875 73.4803 31.7679 73.7501 31.7679H78.8639C83.9525 31.7679 87.278 35.3318 87.278 39.9812C87.278 44.6557 83.9588 48.1694 78.8639 48.1694H73.7501C73.4803 48.1694 73.2607 47.9498 73.2607 47.68V32.2573ZM78.8701 46.3498C82.8545 46.3498 85.1635 43.4949 85.1635 39.9812C85.1635 36.4361 82.9235 33.5875 78.8701 33.5875H75.3062V46.3498H78.8701ZM107.689 42.2212C107.689 38.7765 109.954 35.9969 113.568 35.9969C117.182 35.9969 119.447 38.7765 119.447 42.2212C119.447 45.6659 117.182 48.4706 113.568 48.4706C109.954 48.4706 107.689 45.6596 107.689 42.2212ZM117.502 42.2212C117.502 39.8118 116.103 37.6471 113.568 37.6471C111.033 37.6471 109.609 39.8118 109.609 42.2212C109.609 44.6557 111.033 46.8204 113.568 46.8204C116.103 46.8204 117.502 44.6557 117.502 42.2212ZM121.217 33.0479C121.217 32.3577 121.782 31.818 122.447 31.818C123.137 31.818 123.702 32.3577 123.702 33.0479C123.702 33.738 123.137 34.3028 122.447 34.3028C121.782 34.3028 121.217 33.7318 121.217 33.0479ZM122.026 36.2918H122.886C123.156 36.2918 123.375 36.5114 123.375 36.7812V47.68C123.375 47.9498 123.156 48.1694 122.886 48.1694H122.026C121.756 48.1694 121.537 47.9498 121.537 47.68V36.7812C121.537 36.5114 121.756 36.2918 122.026 36.2918ZM134.004 40.4016C134.004 38.3122 132.944 37.6471 131.35 37.6471C129.901 37.6471 128.52 38.5318 127.83 39.4918V47.68C127.83 47.9498 127.611 48.1694 127.341 48.1694H126.481C126.211 48.1694 125.992 47.9498 125.992 47.68V36.7812C125.992 36.5114 126.211 36.2918 126.481 36.2918H127.341C127.611 36.2918 127.83 36.5114 127.83 36.7812V38.011C128.665 37.0259 130.29 35.9969 132.059 35.9969C134.544 35.9969 135.849 37.2518 135.849 39.8306V47.6737C135.849 47.9435 135.629 48.1631 135.36 48.1631H134.5C134.23 48.1631 134.011 47.9435 134.011 47.6737L134.004 40.4016ZM91.9399 39.9812C91.9399 34.9365 95.6545 31.498 100.304 31.498C103.058 31.498 104.991 32.6965 106.296 34.3404C106.459 34.5475 106.403 34.8549 106.171 34.9867L105.254 35.4949C105.047 35.6141 104.784 35.5577 104.633 35.3757C103.661 34.171 102.086 33.3239 100.304 33.3239C96.7839 33.3239 94.0545 36.0784 94.0545 39.9875C94.0545 43.8714 96.7839 46.651 100.304 46.651C102.092 46.651 103.667 45.8228 104.633 44.5992C104.784 44.411 105.041 44.3608 105.254 44.4737L106.183 44.982C106.422 45.1137 106.478 45.4275 106.309 45.6345C104.953 47.291 103.058 48.4706 100.304 48.4706C95.6545 48.4643 91.9399 45.0259 91.9399 39.9812Z" fill="#5F677C"/>
<path d="M21.1321 23.98C29.9686 23.98 37.1321 31.1444 37.1321 39.981C37.1318 48.8173 29.9685 55.981 21.1321 55.981C12.2957 55.981 5.13234 48.8173 5.13208 39.981C5.13208 31.1444 12.2955 23.98 21.1321 23.98ZM17.4739 28.7183C12.6365 30.2619 9.12928 34.798 9.12915 40.1499C9.12915 45.502 12.6364 50.0389 17.4739 51.5825C17.8377 51.6954 18.1328 51.4821 18.1331 51.106V50.1646C18.1331 49.9136 17.9388 49.6245 17.7004 49.5366C13.873 48.1311 11.1312 44.4546 11.1311 40.144C11.1311 35.8335 13.873 32.157 17.7004 30.7515C17.9388 30.6698 18.1331 30.3745 18.1331 30.1235V29.1948C18.133 28.8184 17.8378 28.6053 17.4739 28.7183ZM24.7903 28.731C24.4264 28.6118 24.1311 28.8311 24.1311 29.2075V30.1362C24.1311 30.3872 24.3263 30.6753 24.5647 30.7632C28.3921 32.1687 31.134 35.8462 31.134 40.1567C31.134 44.4672 28.392 48.1438 24.5647 49.5493C24.3012 49.6434 24.1311 49.9012 24.1311 50.1772V51.106C24.1313 51.4822 24.4265 51.6954 24.7903 51.5825C29.6279 50.0327 33.1287 45.5022 33.135 40.1626C33.1349 34.8106 29.6278 30.2745 24.7903 28.731ZM20.637 32.1382C20.3609 32.1382 20.135 32.3641 20.135 32.6401V34.1899C18.1523 34.4723 16.8723 35.7898 16.8723 37.4839C16.8724 39.6798 18.196 40.5264 20.9944 40.9028C22.889 41.2165 23.4288 41.6247 23.429 42.7036C23.429 43.7828 22.5125 44.5044 21.22 44.5044C19.4696 44.5043 18.8981 43.7457 18.6848 42.7544C18.6346 42.516 18.434 42.3462 18.1956 42.3462H17.054C16.7653 42.3462 16.5389 42.6039 16.5891 42.8862C16.8778 44.5488 17.9449 45.7719 20.1282 46.0669V47.6479C20.1282 47.924 20.3542 48.1498 20.6301 48.1499H21.6282C21.9042 48.1498 22.1301 47.924 22.1301 47.6479H22.136V46.0669C24.2003 45.7343 25.5178 44.2977 25.5178 42.522C25.5178 40.1817 24.1 39.3975 21.3518 39.021C19.319 38.7261 18.9299 38.2487 18.9299 37.3013C18.9301 36.4043 19.6141 35.7642 20.9377 35.7642C22.1362 35.7642 22.8263 36.1787 23.1086 37.145C23.1777 37.3646 23.3662 37.5151 23.592 37.5151H24.6458C24.9407 37.5151 25.1665 37.2452 25.1038 36.9565C24.7712 35.4382 23.7485 34.5225 22.136 34.2339V32.6401C22.136 32.3641 21.9101 32.1382 21.634 32.1382H20.637Z" fill="#5F677C"/>
</g>
<defs>
<clipPath id="clip0_9505_4952">
<rect width="130.761" height="32" fill="white" transform="translate(5.11328 24)"/>
</clipPath>
</defs>
</svg>
