<svg xmlns="http://www.w3.org/2000/svg" fill="none" viewBox="0 0 16 16"><path fill="currentColor" d="M8 6.875c4.038 0 7.312-1.51 7.312-3.375S12.038.125 8 .125.698 1.635.698 3.5 3.962 6.875 8 6.875m0 6.243c-2.757 0-5.21-.729-6.843-1.786-.292.364-.459.757-.459 1.168 0 1.864 3.264 3.375 7.302 3.375s7.312-1.51 7.312-3.375c0-.411-.167-.804-.459-1.168C13.22 12.39 10.757 13.118 8 13.118m0-4.5c-2.757 0-5.21-.729-6.843-1.786C.865 7.196.698 7.59.698 8c0 1.864 3.264 3.375 7.302 3.375S15.312 9.865 15.312 8c0-.411-.167-.804-.459-1.168C13.22 7.89 10.757 8.62 8 8.62"/></svg>