<svg xmlns="http://www.w3.org/2000/svg" fill="none" viewBox="0 0 16 17"><path fill="currentColor" d="M13.597 6.615a3.86 3.86 0 0 0-2.541-.239 3.79 3.79 0 0 0 .938-2.71C11.886 1.693 10.193.078 8.157.003 5.877-.081 4 1.685 4 3.877c0 .953.356 1.824.944 2.5a3.86 3.86 0 0 0-2.54.238C.997 7.248.02 8.587 0 10.089c-.028 2.165 1.773 3.928 4 3.928a4.05 4.05 0 0 0 2.77-1.083v1.142c0 .548-.148 1.086-.429 1.562l-.54.916c-.117.199.032.446.268.446H9.93c.237 0 .385-.247.268-.446l-.54-.916a3.1 3.1 0 0 1-.428-1.562v-1.142A4.05 4.05 0 0 0 12 14.018c2.227 0 4.029-1.764 4-3.929-.02-1.502-.998-2.841-2.403-3.474"/></svg>