<svg xmlns="http://www.w3.org/2000/svg" fill="none" viewBox="0 0 18 18"><g clip-path="url(#a)"><path fill="currentColor" d="M17.666 10A4.667 4.667 0 0 1 13 14.666a4.6 4.6 0 0 1-2.158-.533l.991 2.992a.65.65 0 0 1-.091.6.66.66 0 0 1-.534.275H6.792a.66.66 0 0 1-.534-.275.65.65 0 0 1-.091-.6l.991-2.992A4.6 4.6 0 0 1 5 14.666 4.667 4.667 0 0 1 .334 10C.334 5.534 8.475.275 8.817.05a.36.36 0 0 1 .366 0c.342.225 8.483 5.484 8.483 9.95"/></g><defs><clipPath id="a"><path fill="currentColor" d="M0 0h18v18H0z"/></clipPath></defs></svg>