<svg xmlns="http://www.w3.org/2000/svg" width="19" height="18" fill="none" viewBox="0 0 19 18"><g clip-path="url(#a)"><path fill="currentColor" fill-rule="evenodd" d="m14.144 2.05.191.025c.504.07 1.171.163 1.55.54.309.31.427.813.498 1.261l.042.289c.094.68.119 1.573-.042 2.563-.317 1.954-1.357 4.286-3.97 6.091-.014.141-.015.283-.012.425l.007.213c.013.327.025.653-.067.97-.142.495-.647.82-1.12 1.053l-.233.11-.299.132c-.56.237-1.315.48-1.789.007-.283-.283-.4-.7-.496-1.113l-.035-.155a6 6 0 0 0-.15-.579 9 9 0 0 0-.12-.332 2 2 0 0 1-.152.168c-.259.258-.644.438-.96.564-.347.137-.739.257-1.101.356l-.187.049-.356.089-.323.074-.387.083-.242.047a.755.755 0 0 1-.88-.88l.064-.323.115-.522.093-.38.07-.27c.099-.362.218-.754.356-1.1.126-.317.306-.702.564-.96l.06-.059-.048-.018a6 6 0 0 0-.388-.133l-.207-.064c-.519-.158-1.074-.326-1.42-.671-.417-.418-.277-1.056-.075-1.584l.083-.205.132-.3.11-.231c.233-.473.558-.98 1.052-1.121.262-.076.535-.08.808-.073l.164.006c.214.008.428.015.637-.005 1.805-2.613 4.137-3.653 6.091-3.97.9-.146 1.72-.14 2.372-.066m-1.966 4.264a1.496 1.496 0 1 0-2.116 2.115 1.496 1.496 0 0 0 2.116-2.115" clip-rule="evenodd"/></g><defs><clipPath id="a"><path fill="currentColor" d="M.5 0h18v18H.5z"/></clipPath></defs></svg>