<svg width="18" height="18" viewBox="0 0 18 18" fill="none" xmlns="http://www.w3.org/2000/svg">
<g clip-path="url(#clip0_15241_74790)">
<path d="M9.97003 13.6993L9.96964 11.2868C11.479 11.0335 13.1753 10.5864 13.5272 10.3798C13.9108 10.1544 14.138 9.6925 14.138 9.0003C14.1386 8.30639 13.909 7.84924 13.527 7.61948C13.1233 7.3765 11.4793 6.96535 9.96944 6.71328L9.96979 4.30078C9.96981 3.74793 9.35124 3.42011 8.89369 3.72647C6.14635 5.57112 3.68721 8.44897 3.5913 8.56974C3.39563 8.81716 3.38735 9.17203 3.59148 9.42993C3.68743 9.55071 6.14595 12.4288 8.89349 14.2736C9.35569 14.5805 9.97003 14.2495 9.97003 13.6993Z" fill="#B1BAD3"/>
</g>
<defs>
<clipPath id="clip0_15241_74790">
<rect width="18" height="18" fill="white"/>
</clipPath>
</defs>
</svg>
