<svg xmlns="http://www.w3.org/2000/svg" fill="none" viewBox="0 0 17 17"><path fill="currentColor" fill-rule="evenodd" d="M10.889 10.749c-.878-.494-1.242-1.12-.298-2.577 1.466-2.358 1.728-4.385.778-6.024C10.635.881 9.378.125 7.996.125c-1.378 0-2.64.756-3.374 2.023-.95 1.64-.687 3.666.784 6.033 1.26 1.941.172 2.403-1.35 3.05C2.57 11.86.672 12.667.13 15.195a.563.563 0 0 0 .39.656c.079.024 2.01.583 7.473.586q1.213-.001 2.2-.034A4.5 4.5 0 0 1 9.5 14c0-1.278.533-2.432 1.389-3.251" clip-rule="evenodd"/><rect width="6" height="6" x="11" y="11" fill="currentColor" rx="3"/></svg>