<svg width="22" height="22" viewBox="0 0 22 22" fill="none" xmlns="http://www.w3.org/2000/svg">
<mask id="mask0_15241_75514" style="mask-type:luminance" maskUnits="userSpaceOnUse" x="0" y="0" width="22" height="22">
<path d="M22 0H0V22H22V0Z" fill="white"/>
</mask>
<g mask="url(#mask0_15241_75514)">
<path d="M20.8306 10.3425C20.8306 15.8324 16.3802 20.2827 10.8904 20.2827C5.40058 20.2827 0.950195 15.8324 0.950195 10.3425C0.950195 4.85273 5.40058 0.402344 10.8904 0.402344C16.3802 0.402344 20.8306 4.85273 20.8306 10.3425Z" fill="white"/>
<path d="M11.0947 0.000392086C4.94391 -0.0509412 -0.0519178 4.94489 -0.000584477 11.0957C0.0507489 17.0687 4.93108 21.949 10.9022 21.9985C17.0531 22.0517 22.0507 17.0541 21.9976 10.9032C21.9481 4.93206 17.0678 0.0517252 11.0947 0.000392086ZM7.80578 5.47472C8.50978 6.36939 8.93143 7.50059 8.93143 8.72887C8.93143 9.79225 8.61605 10.7822 8.07343 11.609H4.26008L7.80578 5.47472ZM19.4327 12.9676C19.4327 13.0189 19.4053 13.0629 19.3576 13.083C19.0991 13.193 18.2466 13.589 17.8909 14.0822C16.976 15.3564 16.2776 17.3584 14.7156 17.3584H8.19805C5.88991 17.3584 3.95942 15.5269 3.96125 13.0867C3.96125 13.0262 4.01258 12.9767 4.07308 12.9767H7.16225C7.26858 12.9767 7.35291 13.0629 7.35291 13.1674V13.7632C7.35291 14.0804 7.6096 14.337 7.92674 14.337H10.2698V12.973H8.66926C9.5896 11.807 10.1378 10.3349 10.1378 8.73252C10.1378 6.94506 9.45205 5.31523 8.33005 4.09606C9.00839 4.17489 9.65743 4.31056 10.2698 4.49023V4.11072C10.2698 3.71656 10.5887 3.39756 10.9829 3.39756C11.3771 3.39756 11.696 3.71656 11.696 4.11072V5.02556C13.8833 6.04672 15.3151 7.74069 15.3151 9.65652C15.3151 10.7804 14.8238 11.8272 13.9749 12.7072C13.8118 12.8759 13.5862 12.9712 13.3498 12.9712H11.696V14.3334H13.7714C14.2187 14.3334 15.0218 13.4845 15.4031 12.973C15.4031 12.973 15.4196 12.9474 15.4636 12.9345C15.5076 12.9217 19.2751 12.0564 19.2751 12.0564C19.3539 12.0344 19.4327 12.0949 19.4327 12.1756V12.9676Z" fill="#0086FF"/>
</g>
</svg>
