<svg width="18" height="18" viewBox="0 0 18 18" fill="none" xmlns="http://www.w3.org/2000/svg">
<g clip-path="url(#clip0_15241_75461)">
<path d="M6.89844 5.34766C10.1561 5.34766 12.7969 7.98846 12.7969 11.2461C12.7967 14.5036 10.156 17.1445 6.89844 17.1445C3.64093 17.1445 1.00018 14.5036 1 11.2461C1 7.98847 3.64082 5.34767 6.89844 5.34766ZM15.7031 0C15.9154 0 16.1033 0.119829 16.2168 0.302734L16.2178 0.304687H16.2188C16.2892 0.417685 16.332 0.558062 16.332 0.709961C16.332 0.861682 16.2897 1.00196 16.2178 1.11719L14.5615 4.07031L15.9805 3.69531C16.0651 3.65278 16.1643 3.62802 16.2686 3.62793C16.5524 3.62793 16.7982 3.81119 16.918 4.0791L16.9453 4.14062C16.9801 4.23322 17 4.34114 17 4.4541C17 4.61619 16.9584 4.76718 16.8867 4.89453L16.2188 6.09766L15.4541 7.4707L14.8691 8.49023L14.5215 9.0918C14.4543 9.21082 14.3845 9.32694 14.3145 9.44141C13.477 6.25094 10.6365 3.87364 7.21777 3.7334C7.55106 3.36471 7.90088 3.02107 8.26855 2.70215L8.2959 2.67871C9.01073 2.05126 9.38513 1.76439 9.97559 1.31055C10.161 1.16799 10.3678 1.0085 10.6133 0.817383C11.08 0.463656 11.8662 0.240074 12.2637 0.682617C12.6062 1.06414 12.3576 1.67443 12.1963 2.07129C12.1705 2.13479 12.1475 2.19335 12.1289 2.24414L11.9561 2.67871L15.3535 0.120117C15.4513 0.0447208 15.573 0.000105163 15.7031 0Z" fill="#B1BAD3"/>
</g>
<defs>
<clipPath id="clip0_15241_75461">
<rect width="18" height="18" fill="white"/>
</clipPath>
</defs>
</svg>
