<svg xmlns="http://www.w3.org/2000/svg" fill="none" viewBox="0 0 16 16"><path fill="currentColor" fill-rule="evenodd" d="M6.868 6.426q.003.204.003.41l.003.5c.004.335.007.674-.003 1.019-.015.3.116.494.386.517q.74.045 1.48 0c.27-.023.4-.208.393-.517-.013-.534-.011-1.067-.01-1.599 0-.443.002-.887-.005-1.333 0-.254.061-.408.293-.555a2.604 2.604 0 0 0 1.11-3.016A2.63 2.63 0 0 0 7.958 0a2.65 2.65 0 0 0-2.513 1.913A2.62 2.62 0 0 0 6.578 4.86c.231.14.308.293.3.548-.016.341-.013.679-.01 1.018M5.8 6.411q0 .298.003.586c.003.472.006.926-.01 1.381-.024.71.308 1.18.948 1.435a3.36 3.36 0 0 0 2.552-.015c.601-.247.933-.687.91-1.374a33 33 0 0 1-.01-1.4l.002-.575q.231 0 .456-.007c.372-.01.735-.019 1.086.03.262.04.555.232.733.448 1.048 1.296 2.074 2.615 3.1 3.934.076.093.13.286.092.363-.047.085-.232.147-.355.147q-7.32.01-14.642 0c-.123 0-.308-.062-.347-.155-.038-.092.023-.27.093-.37l.304-.392a151 151 0 0 1 2.803-3.535c.208-.247.586-.416.918-.478.3-.06.61-.047.934-.034q.21.009.43.01m2.213 6.087h7.48c.485 0 .492.007.492.501q0 .228-.007.457c-.008.336-.017.674.015 1.009.093 1.041-.655 1.543-1.511 1.535-2.568-.028-5.141-.024-7.712-.019q-1.446.003-2.89.004H1.335c-.825 0-1.318-.502-1.326-1.32q-.003-.346 0-.694c.003-.347.006-.694-.008-1.041-.015-.348.124-.44.455-.44 1.89.011 3.777.01 5.666.008z" clip-rule="evenodd"/></svg>