<svg xmlns="http://www.w3.org/2000/svg" fill="none" viewBox="0 0 18 18"><g clip-path="url(#a)"><path fill="currentColor" d="M18 10.623c0 .076 0 .153-.038.191h.02v.938c0 2.353-3.817 4.248-8.52 4.248C5.067 16 1.443 14.335 1 12.192c1.195 1.492 4.317 2.564 7.999 2.564 3.296 0 6.149-.842 7.575-2.105-1.504 1.014-4.087 1.665-7.035 1.665-3.856 0-7.113-1.129-8.115-2.68-.02 0-.02-.018-.02-.018a1.7 1.7 0 0 1-.289-.708c0-.096-.02-.192-.02-.287 0-1.895 3.239-3.445 7.402-3.675l-.057.421c-2.525.134-4.627.804-5.59 1.723-.366.363-.578.746-.578 1.148 0 .191.058.401.154.593q.231.43.752.803c1.214.88 3.546 1.474 6.225 1.474 2.68 0 5.012-.593 6.226-1.474q.52-.372.752-.803c.096-.192.154-.383.154-.593 0-.517-.328-.977-.887-1.397-1.06-.785-3.007-1.34-5.281-1.474l-.058-.383V6.93c4.317.172 7.69 1.761 7.69 3.694zm-2.78-.756c.348 0 .619.267.619.61a.56.56 0 0 1-.175.42.63.63 0 0 1-.445.192.63.63 0 0 1-.445-.191.56.56 0 0 1-.175-.42.62.62 0 0 1 .62-.611m-4.763-1.93c2.072.191 3.62.955 3.62 1.853 0 .4-.31.783-.851 1.089-.852.477-2.246.802-3.814.802s-2.963-.325-3.814-.802c-.542-.306-.852-.688-.852-1.09 0-.897 1.549-1.66 3.62-1.852l-.29 2.006c0 .4 1.103.61 1.335.61.233 0 1.336-.21 1.336-.63zM6.613 6.163c-.387 0-.715-.329-.714-.698 0-.387.328-.716.715-.716.194 0 .348.077.484.194h1.895l.039-.271c-.04-.02-.058-.02-.097-.039-.04 0-.058-.02-.097-.039a1.41 1.41 0 0 1-.735-1.22C8.103 2.62 8.722 2 9.475 2s1.373.62 1.373 1.374c0 .542-.29.988-.735 1.22-.039.02-.057.02-.096.04-.04.019-.059.019-.097.038l.038.27h2.088a.72.72 0 0 1 .484-.193c.387 0 .716.329.716.716a.727.727 0 0 1-.716.717.72.72 0 0 1-.484-.194h-1.933l.077.503v.039l.058.388.019.174.058.348.29 2.053c0 .174-.793.426-1.141.426-.349 0-1.141-.252-1.141-.406l.29-2.072.058-.348.02-.174.057-.426.077-.523h-1.74a.72.72 0 0 1-.483.194zm3.751-2.457s-.019-.774-.89-.813c0 0 .31.174.485.348.328.29.405.465.405.465"/></g><defs><clipPath id="a"><path fill="currentColor" d="M0 0h18v18H0z"/></clipPath></defs></svg>