<svg width="140" height="80" viewBox="0 0 140 80" fill="none" xmlns="http://www.w3.org/2000/svg">
<g clip-path="url(#clip0_9505_4961)">
<g clip-path="url(#clip1_9505_4961)">
<path d="M46.751 36.1413H45.2205V33.5726C45.2217 33.3907 45.1835 33.2107 45.1085 33.045C45.0335 32.8793 44.9235 32.7318 44.7861 32.6126C44.6434 32.4912 44.4759 32.4024 44.2953 32.3524C44.1148 32.3024 43.9255 32.2924 43.7407 32.323C43.4465 32.3746 43.1803 32.5293 42.9897 32.7593C42.7992 32.9893 42.6969 33.2797 42.701 33.5784V36.1355H41.2632C40.9299 36.14 40.6115 36.2745 40.3759 36.5104C40.1403 36.7462 40.0061 37.0648 40.002 37.3981C40.0003 37.5642 40.0317 37.729 40.0945 37.8828C40.1572 38.0366 40.2501 38.1763 40.3675 38.2938C40.485 38.4112 40.6247 38.5041 40.7785 38.5668C40.9323 38.6296 41.0971 38.661 41.2632 38.6593H42.701V47.0705C42.7014 47.405 42.8344 47.7257 43.0708 47.9624C43.3071 48.199 43.6277 48.3324 43.9622 48.3331C44.2955 48.3286 44.6139 48.1941 44.8495 47.9583C45.0851 47.7224 45.2193 47.4038 45.2234 47.0705V38.6651H46.7539C46.9201 38.667 47.085 38.6357 47.239 38.5731C47.393 38.5104 47.5329 38.4176 47.6505 38.3001C47.7681 38.1826 47.8611 38.0428 47.9239 37.8889C47.9868 37.735 48.0182 37.5701 48.0165 37.4039C48.0163 37.2379 47.9834 37.0736 47.9197 36.9203C47.856 36.767 47.7628 36.6277 47.6452 36.5105C47.5277 36.3932 47.3883 36.3003 47.2348 36.2369C47.0814 36.1736 46.917 36.1411 46.751 36.1413Z" fill="#5F677C"/>
<path d="M31.0159 35.9282H31.0058C27.7623 35.9282 25.1241 38.7503 25.1241 42.2196C25.1241 45.6889 27.7623 48.511 31.0058 48.511C33.1777 48.511 35.1281 47.4728 36.0867 45.8019L36.1084 45.7599C36.2409 45.5122 36.2878 45.2276 36.2416 44.9505C36.2074 44.745 36.1221 44.5514 35.9936 44.3875C35.8651 44.2235 35.6974 44.0945 35.506 44.0122C35.2333 43.8942 34.9277 43.876 34.6428 43.9607C34.358 44.0454 34.112 44.2277 33.948 44.4756C33.2241 45.5137 32.3147 45.9756 31.0116 45.9756C29.4275 45.9756 28.3213 44.8042 27.8782 43.475H35.6494C35.9876 43.4754 36.3122 43.3416 36.5518 43.103C36.7915 42.8644 36.9268 42.5405 36.9279 42.2023C36.9135 38.7387 34.2651 35.9282 31.0159 35.9282ZM27.8782 40.9527C28.3198 39.6234 29.4232 38.4506 31.0159 38.4506C32.571 38.4506 33.7149 39.6089 34.1565 40.9527H27.8782Z" fill="#5F677C"/>
<path d="M57.0532 35.9571C56.0284 35.9571 55.03 36.2826 54.2022 36.8867V28.6406C54.2018 28.3062 54.0688 27.9856 53.8324 27.7492C53.5959 27.5128 53.2754 27.3798 52.941 27.3794C52.6077 27.3835 52.2891 27.5177 52.0533 27.7533C51.8174 27.9888 51.6829 28.3072 51.6784 28.6406V47.0225C51.6771 47.2046 51.7152 47.3848 51.7902 47.5508C51.8652 47.7168 51.9752 47.8645 52.1128 47.9839C52.2556 48.105 52.4231 48.1936 52.6036 48.2436C52.7841 48.2936 52.9734 48.3038 53.1582 48.2735C53.4526 48.2219 53.719 48.067 53.9096 47.8367C54.1001 47.6063 54.2023 47.3156 54.1978 47.0167V42.8176C54.1978 42.8002 54.1978 42.7162 54.1848 42.6178C54.1848 42.5497 54.1703 42.473 54.1689 42.4426V42.3904C54.0863 41.1177 54.4165 39.9839 55.0753 39.2831C55.5676 38.7575 56.2337 38.4896 57.0561 38.4896C58.6706 38.4896 59.4062 40.0187 59.4062 41.4391V47.0225C59.4042 47.1887 59.4355 47.3536 59.4982 47.5076C59.5609 47.6616 59.6537 47.8015 59.7711 47.9191C59.8886 48.0367 60.0284 48.1297 60.1823 48.1925C60.3362 48.2554 60.5011 48.2868 60.6673 48.2851C61.0018 48.2843 61.3224 48.151 61.5588 47.9143C61.7952 47.6777 61.9281 47.357 61.9285 47.0225V41.429C61.9314 38.7763 60.2228 35.9571 57.0532 35.9571Z" fill="#5F677C"/>
<path d="M116.156 36.2583L116.129 36.2496C115.942 36.1933 115.744 36.1818 115.552 36.216C115.36 36.2502 115.178 36.3292 115.022 36.4465C114.864 36.5639 114.735 36.7166 114.645 36.8925C114.556 37.0685 114.508 37.2628 114.507 37.4601V41.0424C114.507 43.3663 114.185 46.0335 111.685 46.0335C110.07 46.0335 109.335 44.5059 109.335 43.0854V37.4659C109.334 37.1315 109.201 36.811 108.965 36.5745C108.728 36.3381 108.408 36.2051 108.074 36.2047C107.74 36.2092 107.422 36.3435 107.187 36.5791C106.951 36.8146 106.817 37.1328 106.812 37.4659V43.0912C106.812 44.503 107.247 45.8279 108.04 46.8241C108.423 47.3017 108.896 47.6988 109.434 47.9925C109.971 48.2861 110.56 48.4704 111.169 48.5347C111.778 48.5991 112.393 48.5422 112.98 48.3674C113.566 48.1926 114.112 47.9033 114.586 47.5162C114.674 47.7607 114.835 47.9719 115.048 48.1203C115.26 48.2688 115.514 48.3471 115.774 48.3444C116.108 48.3441 116.429 48.2109 116.666 47.9741C116.902 47.7374 117.035 47.4164 117.035 47.0818V37.4833C117.035 37.2127 116.951 36.9489 116.793 36.729C116.635 36.5092 116.413 36.3445 116.156 36.2583Z" fill="#5F677C"/>
<path d="M71.7616 35.9282H71.7515C68.508 35.9282 65.8684 38.7503 65.8684 42.2196C65.8684 45.6889 68.508 48.511 71.7515 48.511C73.9234 48.511 75.8738 47.4728 76.8324 45.8019L76.8541 45.7599C76.9866 45.5122 77.0335 45.2276 76.9873 44.9505C76.9531 44.745 76.8678 44.5514 76.7393 44.3875C76.6108 44.2235 76.4431 44.0945 76.2518 44.0122C75.979 43.8942 75.6734 43.876 75.3885 43.9607C75.1037 44.0454 74.8577 44.2277 74.6937 44.4756C73.9698 45.5137 73.0604 45.9756 71.7573 45.9756C70.1732 45.9756 69.067 44.8042 68.6239 43.475H76.3937C76.732 43.4754 77.0567 43.3417 77.2966 43.1031C77.5365 42.8645 77.6721 42.5406 77.6737 42.2023C77.6664 38.7387 75.0152 35.9282 71.7616 35.9282ZM68.6239 40.9527C69.067 39.622 70.1732 38.4506 71.7573 38.4506C73.3124 38.4506 74.4563 39.6089 74.8979 40.9527H68.6239Z" fill="#5F677C"/>
<path d="M134.372 35.9575C133.615 35.9594 132.87 36.1357 132.193 36.4727C131.516 36.8098 130.926 37.2984 130.469 37.9007C130.04 37.2959 129.471 36.804 128.81 36.4669C128.15 36.1298 127.417 35.9575 126.676 35.9648C125.615 35.9633 124.583 36.3074 123.736 36.945C123.662 36.7559 123.542 36.5879 123.387 36.4556C123.245 36.3343 123.077 36.2455 122.897 36.1955C122.716 36.1454 122.527 36.1354 122.342 36.166C122.048 36.2176 121.781 36.3723 121.591 36.6023C121.4 36.8324 121.298 37.1228 121.302 37.4214V47.0229C121.301 47.205 121.339 47.3853 121.414 47.5512C121.489 47.7172 121.599 47.865 121.737 47.9843C121.968 48.1803 122.263 48.2871 122.566 48.2855C122.637 48.2854 122.708 48.2796 122.778 48.2681C123.074 48.2186 123.343 48.0647 123.535 47.8341C123.728 47.6036 123.832 47.3117 123.827 47.0113V42.8817C123.843 42.7698 123.843 42.6562 123.827 42.5443V42.5342C123.775 41.0326 124.092 39.8801 124.746 39.2039C125.213 38.7202 125.846 38.4799 126.679 38.4799C128.533 38.4799 129.029 40.313 129.029 41.3946V47.0229C129.027 47.1891 129.058 47.354 129.121 47.508C129.183 47.662 129.276 47.8019 129.394 47.9195C129.511 48.0371 129.651 48.1301 129.805 48.1929C129.959 48.2558 130.124 48.2872 130.29 48.2855C130.624 48.2851 130.945 48.1519 131.182 47.9152C131.418 47.6784 131.551 47.3575 131.551 47.0229V42.679C131.551 41.231 132.142 38.4799 134.374 38.4799C136.228 38.4799 136.723 40.313 136.723 41.3946V47.0229C136.721 47.1891 136.752 47.354 136.815 47.508C136.878 47.662 136.971 47.8019 137.088 47.9195C137.206 48.0371 137.345 48.1301 137.499 48.1929C137.653 48.2558 137.818 48.2872 137.984 48.2855C138.319 48.2851 138.64 48.152 138.877 47.9152C139.113 47.6785 139.246 47.3576 139.247 47.0229V41.3946C139.25 38.7593 137.54 35.9575 134.372 35.9575Z" fill="#5F677C"/>
<path d="M96.9634 35.9282H96.9518C93.7084 35.9282 91.0702 38.7503 91.0702 42.2196C91.0702 45.6889 93.7084 48.511 96.9518 48.511C99.1238 48.511 101.076 47.4728 102.033 45.8019L102.056 45.7599C102.188 45.5122 102.235 45.2276 102.189 44.9505C102.155 44.745 102.07 44.5514 101.941 44.3875C101.813 44.2235 101.645 44.0945 101.454 44.0122C101.181 43.8942 100.875 43.876 100.59 43.9607C100.305 44.0454 100.059 44.2277 99.8955 44.4756C99.1715 45.5137 98.2622 45.9756 96.9576 45.9756C95.375 45.9756 94.2687 44.8042 93.8257 43.475H101.59C101.928 43.4754 102.253 43.3417 102.493 43.1031C102.733 42.8645 102.868 42.5406 102.87 42.2023C102.862 38.7387 100.213 35.9282 96.9634 35.9282ZM93.8257 40.9527C94.2687 39.622 95.375 38.4506 96.9576 38.4506C98.5142 38.4506 99.6581 39.6089 100.1 40.9527H93.8257Z" fill="#5F677C"/>
<path d="M87.1434 36.1467C86.0864 36.1467 85.0974 36.5898 84.288 37.2226C84.2442 36.9237 84.0947 36.6503 83.8666 36.4523C83.7238 36.3311 83.5563 36.2424 83.3758 36.1924C83.1953 36.1424 83.006 36.1322 82.8212 36.1627C82.5269 36.2142 82.2605 36.3688 82.0698 36.5989C81.879 36.8289 81.7763 37.1193 81.7801 37.418V46.9876C81.7788 47.1543 81.8107 47.3196 81.874 47.4738C81.9374 47.628 82.0308 47.7679 82.149 47.8855C82.2671 48.0031 82.4075 48.096 82.562 48.1586C82.7165 48.2212 82.8819 48.2524 83.0485 48.2503C83.1208 48.2502 83.1929 48.2444 83.2643 48.2329C83.5587 48.1813 83.8251 48.0264 84.0157 47.796C84.2062 47.5657 84.3084 47.275 84.3039 46.9761V42.777C84.3039 41.6722 84.5935 39.0586 87.3302 38.6618C87.6448 38.6274 87.9349 38.4756 88.1426 38.2368C88.3504 37.9979 88.4604 37.6895 88.4509 37.3732C88.4509 37.2135 88.4185 37.0555 88.3558 36.9087C88.2931 36.7619 88.2013 36.6293 88.086 36.5189C87.8328 36.2759 87.4943 36.1422 87.1434 36.1467Z" fill="#5F677C"/>
<path d="M9.73227 47.8944L-0.186279 42.1431L9.73227 55.8756L19.6494 42.1431L9.73227 47.9016V47.8944Z" fill="#5F677C"/>
<path d="M19.6494 40.2984L9.73227 24.1377L-0.186279 40.2984L9.73227 46.057L19.6494 40.2984Z" fill="#5F677C"/>
</g>
</g>
<defs>
<clipPath id="clip0_9505_4961">
<rect width="140" height="80" fill="white"/>
</clipPath>
<clipPath id="clip1_9505_4961">
<rect width="139.584" height="32" fill="white" transform="translate(-0.260254 24)"/>
</clipPath>
</defs>
</svg>
