<svg xmlns="http://www.w3.org/2000/svg" viewBox="0 0 90 90" fill="none">
  <path fill="#2081E2" d="M45 0C69.85 0 90 20.15 90 45C90 69.85 69.85 90 45 90C20.15 90 0 69.85 0 45C0 20.15 20.15 0 45 0Z"/>
  <path fill="#fff" d="M22.2 46.512L22.4355 46.1505L33.6195 28.8795C33.7965 28.596 34.2315 28.6335 34.3545 28.947C36.2895 33.7845 37.9605 39.7335 37.1175 43.563C36.7695 45.0375 35.763 47.0325 34.632 48.858C34.479 49.131 34.3125 49.3965 34.137 49.6545C34.0605 49.7715 33.9315 49.839 33.795 49.839H22.6275C22.2735 49.839 22.0575 49.452 22.2 46.512Z"/>
  <path fill="#fff" d="M74.385 52.7655V56.0775C74.385 56.2545 74.2755 56.4135 74.1135 56.484C73.1955 56.8725 70.071 58.3095 68.691 60.2385C65.0685 65.3055 62.2785 72.45 56.0475 72.45H35.0895C26.3565 72.45 19.2795 65.3505 19.2795 56.577V56.2545C19.2795 56.0175 19.473 55.824 19.71 55.824H31.7475C32.0235 55.824 32.232 56.079 32.202 56.3475C32.094 57.267 32.2575 58.203 32.6865 59.0595C33.5175 60.759 35.2425 61.803 37.1055 61.803H43.1625V56.3625H37.179C36.819 56.3625 36.603 55.953 36.8055 55.656C36.8805 55.5435 36.9645 55.425 37.053 55.2945C37.7085 54.369 38.6475 52.926 39.5835 51.2835C40.2285 50.145 40.8525 48.9315 41.3655 47.7105C41.4765 47.466 41.568 47.214 41.6595 46.9695C41.8065 46.539 41.9595 46.1325 42.075 45.726C42.1905 45.3885 42.291 45.036 42.3915 44.6985C42.681 43.4505 42.822 42.129 42.822 40.7625C42.822 40.212 42.7995 39.6435 42.753 39.093C42.7215 38.4855 42.6525 37.878 42.5625 37.2705C42.4935 36.7395 42.396 36.2085 42.2835 35.6775C42.1215 34.884 41.9115 34.0965 41.6775 33.3195L41.5935 33.0165C41.4225 32.4285 41.2695 31.8765 41.082 31.3185C40.4925 29.4915 39.8355 27.7305 39.1575 26.1045C38.9145 25.524 38.6505 24.966 38.3865 24.408C37.9935 23.559 37.5915 22.7895 37.2195 22.065C37.0365 21.726 36.8745 21.4155 36.7125 21.0975C36.528 20.7375 36.3375 20.3775 36.147 20.0325C36.0165 19.779 35.8695 19.5405 35.7615 19.302L34.5795 17.0685C34.4505 16.8315 34.6695 16.5525 34.9305 16.6275L42.4485 18.6735H42.471C42.4845 18.6735 42.4905 18.6795 42.4965 18.6795L43.4895 18.957L44.5875 19.2675L44.9505 19.368V15.642C44.9505 14.184 46.134 13 47.5845 13C48.309 13 48.963 13.296 49.4295 13.7865C49.896 14.277 50.2185 14.931 50.2185 15.642V20.7765L51.033 21.0015C51.099 21.024 51.165 21.054 51.2235 21.096C51.4365 21.252 51.7365 21.486 52.1055 21.777C52.3935 22.002 52.7055 22.278 53.0715 22.5705C53.7975 23.163 54.636 23.898 55.512 24.7455C55.749 24.96 55.9785 25.182 56.2155 25.4115C57.297 26.4615 58.5075 27.6615 59.6265 28.9785C59.9295 29.34 60.225 29.7095 60.528 30.093C60.8235 30.483 61.14 30.8655 61.419 31.248C61.7925 31.7685 62.193 32.3055 62.55 32.8725C62.7135 33.1245 62.8995 33.3825 63.054 33.6405C63.5025 34.3545 63.894 35.091 64.2705 35.8275C64.4265 36.1485 64.5825 36.492 64.7145 36.8295C65.085 37.7085 65.379 38.6025 65.5665 39.4965C65.6235 39.6885 65.6625 39.8955 65.6865 40.0875V40.1415C65.7585 40.4385 65.79 40.7565 65.8155 41.0745C65.9175 42.1755 65.8575 43.2765 65.616 44.3775C65.5065 44.9325 65.3595 45.471 65.178 46.0245C64.9965 46.5555 64.8135 47.0925 64.5825 47.607C64.1355 48.6555 63.5955 49.68 62.9625 50.6505C62.7645 50.985 62.535 51.3345 62.298 51.669C62.046 52.0185 61.794 52.3605 61.5495 52.6875C61.2285 53.1015 60.8925 53.5305 60.549 53.9295C60.2355 54.306 59.9145 54.6885 59.571 55.041C59.0985 55.5525 58.641 56.034 58.1685 56.4855C57.879 56.7705 57.5655 57.0705 57.252 57.3405C56.9475 57.6255 56.6355 57.8865 56.3385 58.125C55.9065 58.4715 55.5195 58.749 55.1625 58.9935L54.2655 59.6205C54.1305 59.715 53.9625 59.7675 53.79 59.7675H50.2185V61.803H54.8685C56.0325 61.803 57.1395 61.4265 58.047 60.7365C58.3335 60.513 59.6265 59.4705 61.1265 58.053C61.1775 58.0065 61.2435 57.9735 61.3155 57.96L73.9455 54.231C74.2095 54.153 74.385 54.366 74.385 54.633V52.7655Z"/>
</svg>
