<svg width="141" height="80" viewBox="0 0 141 80" fill="none" xmlns="http://www.w3.org/2000/svg">
<g clip-path="url(#clip0_9505_4973)">
<g clip-path="url(#clip1_9505_4973)">
<path d="M48.031 41.3588H53.3194C54.0629 41.3588 54.6655 41.9677 54.6655 42.7113C54.6655 43.4613 54.0629 44.0638 53.3194 44.0638H46.9413C46.8387 44.0638 46.7426 44.1023 46.6721 44.1664L44.749 45.8266C44.4542 46.083 44.6337 46.5638 45.0183 46.5638H52.9989C52.9989 46.5638 53.0053 46.5638 53.0053 46.5574C53.0053 46.5509 53.0117 46.5509 53.0117 46.5509C53.1142 46.5574 53.2104 46.5638 53.3194 46.5638C55.4347 46.5638 57.1526 44.8394 57.1526 42.7113C57.1526 40.6921 55.6078 39.0319 53.6335 38.8716C53.6335 38.8716 53.627 38.8716 53.627 38.8652C53.627 38.8588 53.627 38.8588 53.6206 38.8588H47.9285C47.1849 38.8588 46.5823 38.2499 46.5823 37.5063C46.5823 36.7563 47.1849 36.1537 47.9285 36.1537H54.2937C54.3963 36.1537 54.4988 36.1153 54.5757 36.0448L56.3642 34.3846C56.6462 34.1282 56.4603 33.6538 56.0821 33.6538H48.031C47.999 33.6538 47.9605 33.6538 47.9285 33.6538C45.8131 33.6538 44.0952 35.3781 44.0952 37.5063C44.0952 39.6344 45.8131 41.3588 47.9285 41.3588C47.9605 41.3588 47.999 41.3588 48.031 41.3588Z" fill="#5F677C"/>
<path d="M78.8188 33.647C78.588 33.647 78.4021 33.8329 78.4021 34.07V46.1467C78.4021 46.3774 78.588 46.5697 78.8188 46.5697H88.498C88.6134 46.5697 88.7224 46.5185 88.8057 46.4351L90.0172 45.1339C90.2672 44.8647 90.0813 44.4288 89.7095 44.4288H81.261C81.0302 44.4288 80.8443 44.2429 80.8443 44.0057V34.07C80.8443 33.8393 80.6585 33.647 80.4277 33.647H78.8188Z" fill="#5F677C"/>
<path fill-rule="evenodd" clip-rule="evenodd" d="M63.3127 33.647C62.0756 33.7047 61.082 34.6982 61.0243 35.9354V44.057C61.0243 44.089 61.0243 44.1275 61.0243 44.1595C61.0243 45.448 62.0371 46.4992 63.3127 46.5505H72.0945C73.3637 46.4928 74.383 45.4416 74.383 44.1595C74.383 44.1275 74.383 44.089 74.383 44.057V35.9418C74.3317 34.7046 73.3381 33.7047 72.101 33.6534H63.3127V33.647ZM64.9537 35.9418C64.1781 35.9738 63.5563 36.602 63.5242 37.3841V42.4929C63.5242 42.5121 63.5242 42.5378 63.5242 42.557C63.5242 43.3647 64.1588 44.0313 64.9537 44.0634H70.46C71.2548 44.0313 71.8894 43.3647 71.8894 42.557C71.8894 42.5378 71.8894 42.5121 71.8894 42.4929V37.3841C71.8574 36.602 71.2356 35.9803 70.46 35.9418H64.9537Z" fill="#5F677C"/>
<path fill-rule="evenodd" clip-rule="evenodd" d="M104.087 46.1471C104.087 46.3779 104.273 46.5702 104.504 46.5702H106.145C106.376 46.5702 106.562 46.3843 106.562 46.1471V36.1473C106.562 36.1153 106.562 36.0768 106.562 36.0448C106.562 34.7563 105.555 33.7051 104.299 33.6538H95.8696C95.8376 33.6538 95.7991 33.6538 95.7671 33.6538C94.4594 33.6538 93.4017 34.7243 93.4017 36.0512C93.4017 36.0832 93.4017 36.1217 93.4017 36.1537V46.1471C93.4017 46.3779 93.5876 46.5702 93.8184 46.5702H95.4594C95.6901 46.5702 95.876 46.3843 95.876 46.1471V41.9869C95.876 41.7562 96.0619 41.5639 96.2927 41.5639H103.69C103.921 41.5639 104.107 41.7498 104.107 41.9869V46.1471H104.087ZM95.8568 39.2691V37.1922C95.8568 36.3845 96.5042 35.7307 97.2991 35.7307H102.645C103.44 35.7307 104.087 36.3845 104.087 37.1922V39.2691C104.087 39.4998 103.901 39.6921 103.671 39.6921H96.2735C96.0427 39.6921 95.8568 39.4998 95.8568 39.2691Z" fill="#5F677C"/>
<path fill-rule="evenodd" clip-rule="evenodd" d="M138.734 46.5633C138.503 46.5633 138.317 46.3774 138.317 46.1403V41.9801C138.317 41.7493 138.131 41.557 137.901 41.557H130.42C130.189 41.557 130.003 41.7429 130.003 41.9801V46.1403C130.003 46.371 129.818 46.5633 129.587 46.5633H127.933C127.702 46.5633 127.516 46.3774 127.516 46.1403V36.1469C127.516 36.1149 127.516 36.0764 127.516 36.0444C127.516 34.7239 128.587 33.647 129.907 33.647C129.939 33.647 129.978 33.647 130.01 33.647H138.535C139.805 33.7047 140.824 34.7559 140.824 36.0379C140.824 36.07 140.824 36.1085 140.824 36.1405V46.1339C140.824 46.3646 140.638 46.5569 140.407 46.5569H138.734V46.5633ZM129.997 37.1918V39.2686C129.997 39.4994 130.183 39.6917 130.414 39.6917H137.894C138.125 39.6917 138.311 39.5058 138.311 39.2686V37.1918C138.311 36.3841 137.657 35.7303 136.856 35.7303H131.452C130.644 35.7303 129.997 36.3841 129.997 37.1918Z" fill="#5F677C"/>
<path d="M112.735 33.647C112.856 33.647 112.972 33.6983 113.049 33.7944L120.407 42.5698C120.657 42.8647 121.138 42.6852 121.138 42.2942V34.07C121.138 33.8393 121.324 33.647 121.555 33.647H123.196C123.427 33.647 123.613 33.8329 123.613 34.07V46.1467C123.613 46.3774 123.427 46.5697 123.196 46.5697H121.157C121.151 46.5697 121.145 46.5633 121.145 46.5569C121.145 46.5505 121.145 46.5505 121.138 46.5441L113.651 37.8328C113.401 37.5379 112.92 37.7238 112.92 38.1084V46.1531C112.92 46.3839 112.735 46.5762 112.504 46.5762H110.85C110.619 46.5762 110.433 46.3903 110.433 46.1531V34.07C110.433 33.8393 110.619 33.647 110.85 33.647H112.735Z" fill="#5F677C"/>
<path d="M5.93582 47.0124C6.14095 46.8073 6.41658 46.6919 6.70504 46.6919H33.4031C33.8903 46.6919 34.1339 47.2816 33.7877 47.6214L28.5122 52.8969C28.3071 53.102 28.0315 53.2174 27.743 53.2174H1.04491C0.557746 53.2174 0.314162 52.6277 0.660307 52.2879L5.93582 47.0124Z" fill="#5F677C"/>
<path d="M5.9357 27.3205C6.14083 27.1154 6.41646 27 6.70491 27H33.403C33.8902 27 34.1338 27.5897 33.7876 27.9295L28.5121 33.205C28.307 33.4101 28.0313 33.5255 27.7429 33.5255H1.04479C0.557624 33.5255 0.31404 32.9358 0.660185 32.596L5.9357 27.3205Z" fill="#5F677C"/>
<path d="M28.5122 37.1022C28.3071 36.8971 28.0315 36.7817 27.743 36.7817H1.04491C0.557746 36.7817 0.314162 37.3715 0.660307 37.7112L5.93582 42.9803C6.14095 43.1854 6.41658 43.3008 6.70504 43.3008H33.4031C33.8903 43.3008 34.1339 42.7111 33.7877 42.3714L28.5122 37.1022Z" fill="#5F677C"/>
</g>
</g>
<defs>
<clipPath id="clip0_9505_4973">
<rect width="140" height="80" fill="white" transform="translate(0.5)"/>
</clipPath>
<clipPath id="clip1_9505_4973">
<rect width="140.311" height="26.2109" fill="white" transform="translate(0.5 27)"/>
</clipPath>
</defs>
</svg>
