<svg width="26" height="14" viewBox="0 0 26 14" fill="none" xmlns="http://www.w3.org/2000/svg">
<path d="M1.17003 12.9909H4.72644C5.30916 12.9909 5.80177 12.5631 5.87987 11.9888C6.04808 10.8043 6.50464 9.71248 7.18048 8.7882L2.4346 5.35428C1.10395 7.17593 0.235868 9.35354 0.00458097 11.7166C-0.0554934 12.4016 0.482175 12.9909 1.17003 12.9909Z" fill="#17C36B"/>
<path d="M2.43743 5.3543L7.18331 8.78821C8.06641 7.57976 9.31896 6.65847 10.7728 6.18884L8.95852 0.634155C6.31524 1.48665 4.04142 3.16173 2.43743 5.3543Z" fill="#9CCF40"/>
<path d="M15.2123 6.18884C16.6691 6.65847 17.9217 7.58275 18.8018 8.78821L23.5477 5.3543C21.9467 3.16173 19.6699 1.48665 17.0266 0.631165L15.2123 6.18884Z" fill="#EB9632"/>
<path d="M18.8049 8.7882C19.4807 9.71248 19.9403 10.8043 20.1055 11.9888C20.1866 12.5631 20.6792 12.9909 21.2589 12.9909H24.8183C25.5062 12.9909 26.0468 12.3986 25.9777 11.7166C25.7465 9.35354 24.8784 7.17593 23.5477 5.35428L18.8049 8.7882Z" fill="#E23E44"/>
<path d="M8.96155 0.631147L10.7758 6.18584C11.4757 5.9585 12.2206 5.83886 12.9956 5.83886C13.7705 5.83886 14.5154 5.9615 15.2153 6.18584L17.0266 0.631147C15.756 0.22135 14.4013 0 12.9925 0C11.5838 0 10.2321 0.22135 8.96155 0.631147Z" fill="#EDBE00"/>
<path d="M11.73 10.3748C11.7335 7.64405 12.5525 5.05456 12.8816 4.12494C12.9205 4.01144 13.1097 4.0136 13.1494 4.12705C13.4751 5.06035 14.2885 7.65426 14.285 10.385L11.73 10.3748Z" fill="white"/>
<path d="M11.0133 12.1992C10.6573 11.0938 11.261 9.91042 12.3618 9.55591C13.4625 9.2014 14.6434 9.81006 14.9994 10.9154C15.3554 12.0207 14.7516 13.2041 13.6509 13.5586C12.5502 13.9132 11.3693 13.3045 11.0133 12.1992Z" fill="white"/>
</svg>
