<svg width="26" height="14" viewBox="0 0 26 14" fill="none" xmlns="http://www.w3.org/2000/svg">
<path d="M1.17003 12.9909H4.72644C5.30916 12.9909 5.80177 12.5631 5.87987 11.9888C6.04808 10.8043 6.50464 9.71248 7.18048 8.7882L2.4346 5.35428C1.10395 7.17593 0.235868 9.35354 0.00458097 11.7166C-0.0554934 12.4016 0.482175 12.9909 1.17003 12.9909Z" fill="#17C36B"/>
<path d="M2.43743 5.3543L7.18331 8.78821C8.06641 7.57976 9.31896 6.65847 10.7728 6.18884L8.95852 0.634155C6.31524 1.48665 4.04142 3.16173 2.43743 5.3543Z" fill="#9CCF40"/>
<path d="M15.2123 6.18884C16.6691 6.65847 17.9217 7.58275 18.8018 8.78821L23.5477 5.3543C21.9467 3.16173 19.6699 1.48665 17.0266 0.631165L15.2123 6.18884Z" fill="#EB9632"/>
<path d="M18.8049 8.7882C19.4807 9.71248 19.9403 10.8043 20.1055 11.9888C20.1866 12.5631 20.6792 12.9909 21.2589 12.9909H24.8183C25.5062 12.9909 26.0468 12.3986 25.9777 11.7166C25.7465 9.35354 24.8784 7.17593 23.5477 5.35428L18.8049 8.7882Z" fill="#E23E44"/>
<path d="M8.96155 0.631147L10.7758 6.18584C11.4757 5.9585 12.2206 5.83886 12.9956 5.83886C13.7705 5.83886 14.5154 5.9615 15.2153 6.18584L17.0266 0.631147C15.756 0.22135 14.4013 0 12.9925 0C11.5838 0 10.2321 0.22135 8.96155 0.631147Z" fill="#EDBE00"/>
<path d="M12.3748 12.2699C9.64405 12.2664 7.05456 11.4474 6.12494 11.1183C6.01144 11.0794 6.0136 10.8902 6.12705 10.8505C7.06035 10.5248 9.65426 9.71134 12.385 9.71488L12.3748 12.2699Z" fill="white"/>
<path d="M14.1992 12.9866C13.0938 13.3426 11.9104 12.7388 11.5559 11.6381C11.2014 10.5374 11.8101 9.3565 12.9154 9.00051C14.0207 8.64452 15.2041 9.24824 15.5586 10.349C15.9132 11.4497 15.3045 12.6306 14.1992 12.9866Z" fill="white"/>
</svg>
