<svg width="26" height="14" viewBox="0 0 26 16" fill="none" xmlns="http://www.w3.org/2000/svg">
<path d="M1.17003 12.9909H4.72644C5.30916 12.9909 5.80177 12.5631 5.87987 11.9888C6.04808 10.8043 6.50464 9.71248 7.18048 8.7882L2.4346 5.35428C1.10395 7.17593 0.235868 9.35354 0.00458111 11.7166C-0.0554934 12.4016 0.482175 12.9909 1.17003 12.9909Z" fill="#17C36B"/>
<path d="M2.43743 5.3543L7.18331 8.78821C8.06641 7.57976 9.31896 6.65847 10.7728 6.18884L8.95852 0.634155C6.31524 1.48665 4.04142 3.16173 2.43743 5.3543Z" fill="#9CCF40"/>
<path d="M15.2123 6.18884C16.6691 6.65847 17.9217 7.58275 18.8018 8.78821L23.5477 5.3543C21.9467 3.16173 19.6699 1.48665 17.0266 0.631165L15.2123 6.18884Z" fill="#EB9632"/>
<path d="M18.8049 8.7882C19.4807 9.71248 19.9403 10.8043 20.1055 11.9888C20.1866 12.5631 20.6792 12.9909 21.2589 12.9909H24.8183C25.5062 12.9909 26.0468 12.3986 25.9777 11.7166C25.7465 9.35354 24.8784 7.17593 23.5477 5.35428L18.8049 8.7882Z" fill="#E23E44"/>
<path d="M8.96155 0.631147L10.7758 6.18584C11.4757 5.9585 12.2206 5.83886 12.9956 5.83886C13.7705 5.83886 14.5154 5.9615 15.2153 6.18584L17.0266 0.631147C15.756 0.22135 14.4013 0 12.9925 0C11.5838 0 10.2321 0.22135 8.96155 0.631147Z" fill="#EDBE00"/>
<path d="M14.6366 11.5238C16.6241 9.65099 17.9501 7.2808 18.4021 6.40434C18.4582 6.29829 18.327 6.16186 18.2172 6.21064C17.314 6.61247 14.8668 7.79618 12.8794 9.66895L14.6366 11.5238Z" fill="white"/>
<path d="M13.7981 13.2954C14.8473 12.7978 15.2962 11.5474 14.8007 10.5025C14.3052 9.45768 13.0529 9.01401 12.0037 9.51159C10.9545 10.0092 10.5056 11.2596 11.0011 12.3044C11.4966 13.3493 12.7488 13.793 13.7981 13.2954Z" fill="white"/>
</svg>
