<svg width="140" height="80" viewBox="0 0 140 80" fill="none" xmlns="http://www.w3.org/2000/svg">
<g clip-path="url(#clip0_9505_4984)">
<path d="M20.2543 26.0474C23.079 26.047 25.8404 26.8844 28.1891 28.4534C30.5379 30.0225 32.3687 32.2529 33.4498 34.8624C34.531 37.472 34.8141 40.3436 34.2632 43.114C33.7123 45.8845 32.3522 48.4293 30.355 50.4268C28.3578 52.4242 25.8131 53.7846 23.0427 54.3357C20.2723 54.8869 17.4007 54.6042 14.791 53.5233C12.1813 52.4424 9.95079 50.6119 8.38146 48.2633C6.81212 45.9147 5.97449 43.1535 5.97449 40.3288C5.97449 36.5414 7.47892 32.9091 10.1569 30.2309C12.8348 27.5526 16.4669 26.0478 20.2543 26.0474ZM17.9903 31.545L15.7693 39.9387L14.2393 40.531L13.5037 43.2854L15.0337 42.7075L13.76 47.5093H27.4205L28.3583 43.9461H20.1381L21.0759 40.4546L22.5757 39.891L23.3112 37.1366L21.8099 37.7145L23.4402 31.5402H17.9903V31.545Z" fill="#5F677C"/>
<path d="M40.7292 49.049L44.466 31.2075H48.1279L45.0248 46.0606H54.1L53.4791 49.0426L40.7292 49.049Z" fill="#5F677C"/>
<path d="M58.5404 36.124H62.0271L59.3205 49.049H55.8337L58.5404 36.124ZM59.5625 31.2075H63.0557L62.3981 34.3711H58.8986L59.5625 31.2075Z" fill="#5F677C"/>
<path d="M63.6353 38.7162L64.1702 36.1242H65.8738L66.3005 34.0544L70.3047 31.6455L69.3669 36.1242H71.4972L70.9591 38.7162H68.8177L67.6856 44.1294C67.484 45.1123 67.3826 45.6722 67.3815 45.8091C67.3755 45.9261 67.3953 46.043 67.4396 46.1514C67.4839 46.2599 67.5516 46.3572 67.6379 46.4364C67.8082 46.5861 68.1155 46.6609 68.5629 46.6609C68.7221 46.6609 69.1026 46.6339 69.7188 46.5766L69.1711 49.1686C68.562 49.2909 67.9423 49.3522 67.321 49.3516C66.0877 49.3516 65.1913 49.1139 64.6319 48.6384C64.0726 48.1629 63.7934 47.5042 63.7945 46.6625C63.7945 46.2656 63.9447 45.349 64.245 43.9129L65.3277 38.7162H63.6353Z" fill="#5F677C"/>
<path d="M83.6404 43.6725H74.8836C74.8836 43.811 74.8709 43.9161 74.8709 43.9909C74.8709 44.8506 75.1166 45.5443 75.608 46.0718C75.8325 46.3255 76.1089 46.5279 76.4185 46.6653C76.7281 46.8027 77.0637 46.8718 77.4024 46.8679C78.5625 46.8679 79.4647 46.2671 80.109 45.0656L83.2391 45.583C82.6309 46.8408 81.8179 47.7839 80.8 48.4123C79.7701 49.0446 78.5821 49.372 77.3737 49.3564C75.6362 49.3564 74.2245 48.8066 73.1386 47.7069C72.0528 46.6073 71.5093 45.1532 71.5083 43.3445C71.4837 41.654 71.9991 39.9997 72.9794 38.6222C74.3189 36.7562 76.2295 35.8232 78.7111 35.8232C80.2916 35.8232 81.5488 36.312 82.4829 37.2896C83.4169 38.2672 83.8834 39.6364 83.8824 41.3973C83.8915 42.1626 83.8103 42.9262 83.6404 43.6725ZM80.6965 41.539C80.7045 41.3798 80.7076 41.2683 80.7076 41.1871C80.7076 40.2319 80.4927 39.5138 80.0628 39.033C79.8451 38.7941 79.5775 38.6059 79.279 38.4818C78.9804 38.3578 78.6583 38.3008 78.3354 38.3149C77.9739 38.3162 77.6162 38.3889 77.2828 38.5288C76.9495 38.6687 76.6471 38.873 76.393 39.1301C75.8208 39.6725 75.434 40.4755 75.2323 41.539H80.6965Z" fill="#5F677C"/>
<path d="M93.682 44.1801L97.07 44.7278C96.5117 46.2371 95.6844 47.3851 94.5879 48.1716C93.4772 48.9632 92.1417 49.3773 90.7779 49.353C89.1317 49.353 87.8256 48.862 86.8597 47.8802C85.8938 46.8984 85.413 45.5488 85.4172 43.8314C85.4111 42.456 85.7108 41.0965 86.2945 39.8511C86.8584 38.6241 87.7788 37.5955 88.9358 36.8993C90.0991 36.185 91.4397 35.8121 92.8047 35.823C94.33 35.823 95.5469 36.2205 96.4555 37.0155C97.3641 37.8105 97.8757 38.8571 97.9903 40.1552L94.6675 40.5086C94.5868 39.7858 94.3655 39.2551 94.0036 38.9165C93.6171 38.566 93.1078 38.3823 92.5866 38.4054C91.8876 38.4145 91.2164 38.6809 90.7015 39.1537C90.1177 39.6568 89.6693 40.4094 89.3561 41.4114C89.0589 42.3218 88.9011 43.2719 88.8881 44.2295C88.8881 44.9926 89.0749 45.5807 89.4485 45.9935C89.622 46.1934 89.8372 46.3525 90.0791 46.4599C90.3209 46.5672 90.5834 46.62 90.848 46.6145C91.4407 46.6017 92.0113 46.3872 92.4656 46.0063C92.9878 45.6008 93.3933 44.9921 93.682 44.1801Z" fill="#5F677C"/>
<path d="M99.299 43.6822C99.299 41.2876 99.974 39.377 101.324 37.9505C102.674 36.5239 104.449 35.8123 106.648 35.8154C108.559 35.8154 110.048 36.3403 111.116 37.3901C112.184 38.4398 112.719 39.8536 112.722 41.6315C112.758 43.6291 112.041 45.567 110.715 47.0607C109.367 48.5891 107.571 49.3534 105.328 49.3534C104.206 49.3753 103.095 49.1245 102.092 48.6226C101.188 48.1725 100.451 47.4479 99.9852 46.5528C99.5273 45.6656 99.2918 44.6805 99.299 43.6822ZM109.253 41.1873C109.253 40.3594 109.012 39.696 108.529 39.1971C108.287 38.9488 107.996 38.7539 107.674 38.625C107.352 38.4961 107.007 38.4361 106.661 38.4488C105.931 38.4402 105.22 38.6875 104.653 39.1478C104.064 39.6169 103.606 40.2946 103.279 41.1809C102.975 41.9635 102.81 42.7933 102.792 43.6328C102.792 44.5584 103.044 45.2929 103.547 45.8363C103.786 46.1008 104.079 46.3105 104.407 46.4511C104.734 46.5918 105.088 46.6602 105.445 46.6515C106.4 46.6515 107.203 46.2418 107.855 45.4224C108.784 44.2612 109.248 42.8495 109.247 41.1873H109.253Z" fill="#5F677C"/>
<path d="M116.707 36.124H120.201L117.494 49.049H114.006L116.707 36.124ZM117.73 31.2075H121.223L120.565 34.3711H117.072L117.73 31.2075Z" fill="#5F677C"/>
<path d="M123.681 36.124H126.991L126.65 37.8021C127.341 37.1778 128.122 36.6629 128.969 36.2752C129.687 35.9713 130.459 35.8164 131.239 35.8199C132.3 35.8199 133.138 36.124 133.751 36.7322C134.365 37.3404 134.671 38.1476 134.67 39.1538C134.67 39.607 134.536 40.4673 134.269 41.7347L132.748 49.0489H129.255L130.788 41.7092C131.017 40.6138 131.13 39.961 131.129 39.7509C131.14 39.5574 131.11 39.364 131.042 39.1826C130.974 39.0012 130.869 38.8358 130.734 38.6969C130.585 38.5639 130.41 38.4617 130.221 38.3961C130.032 38.3305 129.832 38.3029 129.633 38.3148C129.121 38.3148 128.553 38.5297 127.929 38.9596C127.301 39.3927 126.794 39.9791 126.456 40.6632C126.196 41.1663 125.904 42.1927 125.579 43.7423L124.472 49.0489H120.979L123.681 36.124Z" fill="#5F677C"/>
</g>
<defs>
<clipPath id="clip0_9505_4984">
<rect width="128.645" height="28.6584" fill="white" transform="translate(6 26)"/>
</clipPath>
</defs>
</svg>
