<svg xmlns="http://www.w3.org/2000/svg" fill="none" viewBox="0 0 18 18"><g clip-path="url(#a)"><path fill="currentColor" d="M10.09 1.337 4.27 7.646a1.01 1.01 0 0 0 .075 1.445l.076.062q.12.087.26.138l2.512.916-1.09 4.535c-.132.55.216 1.101.778 1.23a1.06 1.06 0 0 0 1.008-.302l5.834-6.2a1.01 1.01 0 0 0-.06-1.447l-.07-.058a1 1 0 0 0-.237-.135l-2.383-.97.919-4.641a1.025 1.025 0 0 0-.827-1.2 1.06 1.06 0 0 0-.974.318z"/></g><defs><clipPath id="a"><path fill="currentColor" d="M0 0h18v18H0z"/></clipPath></defs></svg>