<svg xmlns="http://www.w3.org/2000/svg" xml:space="preserve" width="64" baseProfile="tiny" viewBox="0 0 64 64"><path fill="none" d="M0 0h64v64H0z"/><path fill="currentColor" d="M60.945 12.182c-3.313-1.2-5.977 5.986-10.462 7.736-4.632 1.807-11.853-3.272-13.695-.688-2.328 3.28 6.52 7.693 12.469 13.51 4.117 4.03-2.027 14.029-9.133 6.101-7.588-7.62-5.023-17.137-10.26-25.598C24.3 4.257 13.646 1.39 9.584 2.79 5.682 4.135-3.666 21.4 6.853 39.062l-2.84 7.407c-.401 1.044-.08 2.54.718 3.325l5.925 5.854c.797.785 1.828.594 2.291-.424l2.637-5.8a62 62 0 0 0 7.225 5.523s11.726 7.977 25.248 3.885C53.733 57.116 65.19 48.673 60.58 33.13c-2.887-9.732 3.66-19.43.363-20.948m-44.971 13.81a4 4 0 1 1 0-8 4.001 4.001 0 0 1 0 8"/></svg>