<svg xmlns="http://www.w3.org/2000/svg" width="18" height="18" fill="none" viewBox="0 0 18 18"><g clip-path="url(#a)"><path fill="currentColor" d="M2.497 2.29c.665-.12 6.589-.582 12.884-.01C16.623 2.398 18 3.696 18 5.316v7.358c0 1.47-1.141 2.791-2.55 3.033-.603.11-6.443.595-12.886.01C1.326 15.6 0 14.307 0 12.674V5.316c0-1.47 1.088-2.785 2.497-3.027M8.5 6.401a1 1 0 0 0-1.5.866v3.464a1 1 0 0 0 1.5.866l3-1.732a1 1 0 0 0 0-1.732z"/></g><defs><clipPath id="a"><path fill="currentColor" d="M0 0h18v18H0z"/></clipPath></defs></svg>