<svg width="15" height="17" viewBox="0 0 15 17" fill="none" xmlns="http://www.w3.org/2000/svg">
<path d="M13.4829 5.65881C11.0527 1.48123 5.62551 0 5.62551 0C5.62551 0 7.2229 4.04876 3.02395 6.80164C0.369627 8.5419 -0.683963 10.8007 0.454227 13.2712C1.39245 15.3078 3.45185 16.0502 5.60791 16.2812C3.80965 15.3541 2.03764 12.066 5.82706 8.9802C5.66393 9.46305 5.55079 10.3184 5.631 10.8265C5.96169 12.943 7.60085 12.6227 8.42811 11.3212C8.97413 10.4628 8.97194 8.95635 8.91811 7.97552C8.89339 7.53221 8.71375 6.18587 8.65553 6.14959C8.65604 6.14987 10.9923 7.60939 11.2472 10.0709C11.4867 12.383 10.6363 14.9986 7.85791 16.2927C11.3845 15.9716 13.762 13.5107 14.3382 11.3695C14.8408 9.50046 14.4574 7.33449 13.4829 5.65881Z" fill="#B1BAD3"/>
</svg>
