<svg width="18" height="18" viewBox="0 0 18 18" fill="none" xmlns="http://www.w3.org/2000/svg">
<g clip-path="url(#clip0_15241_75503)">
<path d="M7.3125 5.0625C7.3125 3.19922 5.80078 1.6875 3.9375 1.6875C2.07422 1.6875 0.5625 3.19922 0.5625 5.0625C0.5625 6.92578 2.07422 8.4375 3.9375 8.4375C5.80078 8.4375 7.3125 6.92578 7.3125 5.0625ZM14.5673 2.33021C14.2366 1.73363 13.3374 1.6875 13.0699 1.6875C12.6431 1.6875 12.0416 1.83414 11.6087 2.52028C11.2929 2.99267 3.8628 14.0921 3.52991 14.6256C3.2256 15.1117 3.34865 15.4886 3.4486 15.6698C3.7793 16.2664 4.67854 16.3125 4.94603 16.3125C5.3723 16.3125 5.97381 16.1659 6.41602 15.4676C6.56322 15.2347 11.7532 7.46466 14.486 3.37444C14.7903 2.88833 14.6673 2.51145 14.5673 2.33021ZM14.0625 9.5625C12.1987 9.5625 10.6875 11.0742 10.6875 12.9375C10.6875 14.8008 12.1987 16.3125 14.0625 16.3125C15.9263 16.3125 17.4375 14.8008 17.4375 12.9375C17.4375 11.0742 15.9263 9.5625 14.0625 9.5625Z" fill="#B1BAD3"/>
</g>
<defs>
<clipPath id="clip0_15241_75503">
<rect width="18" height="18" fill="white"/>
</clipPath>
</defs>
</svg>
